# xmcd
#
# Track frame offsets:
#	150
#	22070
#	39722
#	58477
#	77147
#	95210
#	112015
#	129112
#	148407
#	171377
#	192255
#	208325
#	227885
#	247712
#	263575
#	282760
#
# Disc length: 4010 seconds
#
# Revision: 1
# Processed by: cddbd v1.5.2PL0 Copyright (c) Steve Scherf et al.
# Submitted via: EZCDAudioConverter 8.2.2.1
#
DISCID=f60fa810
DTITLE=Various Artist - Gold To/Tr
DYEAR=2000
DGENRE=Indie - Alternative
TTITLE0=The Knack - My Sharona
TTITLE1=Huey Lewis and The News - The Power Of Love
TTITLE2=Billy Idol - Mony Mony
TTITLE3=Duran Duran - Is There Something I Should Know
TTITLE4=Culture Club - Karma Chameleon
TTITLE5=Kajagoogoo - Too Shy
TTITLE6=The Human League - Human
TTITLE7=MC Hammer - U Can't Touch This
TTITLE8=The Power Station - Some Like It Hot
TTITLE9=Blondie - Atomic
TTITLE10=Limahl - The Never Ending Story
TTITLE11=Bryan Ferry - Don't Stop The Dance
TTITLE12=Julia Fordham - The Comfort Of Strangers
TTITLE13=Peabo Bryson and Roberta Flack - Tonight, I Celebrate My Love
TTITLE14=Roxy Music - Avalon
TTITLE15=Minnie Riperton - Lovin' You
EXTD=
EXTT0=
EXTT1=
EXTT2=
EXTT3=
EXTT4=
EXTT5=
EXTT6=
EXTT7=
EXTT8=
EXTT9=
EXTT10=
EXTT11=
EXTT12=
EXTT13=
EXTT14=
EXTT15=
PLAYORDER=
